<?xml version="1.0" standalone="no"?>
<!DOCTYPE svg PUBLIC "-//W3C//DTD SVG 20010904//EN"
 "http://www.w3.org/TR/2001/REC-SVG-20010904/DTD/svg10.dtd">
<svg version="1.0" xmlns="http://www.w3.org/2000/svg"
 width="700.000000pt" height="700.000000pt" viewBox="0 0 700.000000 700.000000"
 preserveAspectRatio="xMidYMid meet">
<metadata>
Created by potrace 1.14, written by Peter Selinger 2001-2017
</metadata>
<g transform="translate(0.000000,700.000000) scale(0.100000,-0.100000)"
fill="#000000" stroke="none">
<path d="M3299 6466 c-2 -2 -42 -7 -89 -11 -47 -4 -96 -8 -110 -11 -14 -2 -43
-6 -65 -10 -37 -5 -208 -40 -247 -50 -10 -2 -26 -6 -35 -8 -10 -2 -50 -14 -90
-26 -39 -12 -78 -23 -85 -24 -7 -2 -22 -6 -33 -11 -11 -4 -60 -23 -110 -42
-164 -63 -323 -141 -454 -221 -19 -12 -39 -18 -45 -15 -6 3 -8 3 -4 -2 4 -4
-25 -28 -65 -54 -100 -65 -274 -199 -343 -263 -140 -130 -283 -280 -324 -341
-14 -21 -31 -35 -38 -32 -7 3 -10 0 -7 -6 8 -12 -14 -41 -26 -33 -5 3 -7 -1
-4 -8 4 -11 -5 -27 -55 -85 -5 -7 -10 -16 -10 -22 0 -5 -4 -11 -8 -13 -11 -4
-116 -172 -148 -235 -9 -18 -21 -30 -27 -26 -6 3 -7 1 -3 -5 4 -6 -15 -55 -42
-109 -27 -54 -61 -129 -76 -168 -15 -38 -32 -78 -37 -88 -13 -25 -74 -220
-100 -320 -25 -97 -26 -103 -40 -187 -5 -35 -15 -70 -21 -77 -7 -9 -7 -13 0
-13 9 0 8 -23 -5 -60 -17 -54 -24 -541 -10 -690 9 -89 11 -100 27 -190 5 -30
12 -71 15 -90 3 -20 16 -75 28 -122 13 -47 23 -95 22 -107 -1 -11 2 -18 7 -15
4 3 9 -4 10 -15 0 -12 1 -27 2 -33 1 -7 4 -15 7 -18 5 -4 39 -100 53 -145 1
-5 10 -27 19 -49 9 -21 17 -43 17 -48 0 -5 7 -20 16 -33 9 -13 13 -29 9 -35
-3 -5 -2 -10 3 -10 13 0 43 -70 36 -83 -4 -7 -4 -9 1 -5 4 4 22 -21 40 -55 18
-34 42 -78 54 -97 11 -19 25 -45 31 -58 5 -13 29 -51 52 -84 23 -34 41 -68 41
-74 0 -7 4 -11 8 -8 4 2 10 -5 14 -16 3 -11 11 -20 16 -20 6 0 7 -4 4 -10 -3
-5 -2 -10 3 -10 5 0 27 -26 50 -57 38 -55 74 -99 121 -150 12 -12 21 -25 21
-28 0 -4 16 -21 35 -37 19 -17 32 -35 29 -40 -3 -4 -1 -8 5 -8 5 0 43 -33 84
-73 88 -86 147 -138 187 -167 18 -12 27 -27 24 -33 -4 -7 -4 -9 1 -5 6 6 57
-27 110 -70 36 -29 195 -134 235 -154 14 -7 31 -18 38 -25 7 -7 19 -13 27 -13
7 0 15 -3 17 -8 2 -4 35 -23 73 -42 39 -19 72 -37 75 -40 3 -3 11 -6 17 -7 7
-2 41 -16 75 -32 35 -16 84 -37 110 -46 26 -10 45 -21 43 -26 -3 -4 0 -11 6
-15 8 -4 9 -3 5 4 -9 15 -3 15 45 1 21 -7 36 -16 33 -20 -3 -5 1 -6 9 -3 7 2
27 -1 43 -7 36 -15 39 -16 65 -18 11 0 18 -5 15 -10 -4 -5 2 -8 11 -7 31 5
108 -20 105 -34 -3 -11 0 -11 12 -1 16 13 60 6 51 -9 -3 -5 0 -12 6 -16 7 -4
9 -3 5 4 -9 15 14 20 49 10 48 -14 181 -35 250 -39 22 -1 45 -6 50 -10 12 -8
540 -4 605 5 25 4 66 10 92 15 34 6 46 5 41 -3 -4 -6 1 -5 10 3 9 7 39 14 66
15 27 0 47 4 44 8 -4 7 8 9 75 12 9 1 19 4 22 7 4 5 138 41 160 44 3 0 10 3
15 6 6 3 17 5 25 4 8 0 17 2 20 6 7 9 142 54 158 53 6 -1 12 2 12 7 0 5 8 9
18 9 10 0 24 6 31 13 11 10 12 9 6 -3 -7 -12 -5 -12 11 1 28 24 81 49 88 42 3
-4 6 0 6 7 0 7 3 10 6 7 4 -3 16 -1 28 5 11 7 24 11 29 10 4 -1 7 3 7 8 0 6 9
10 20 10 11 0 20 4 20 8 0 4 16 14 35 21 19 7 35 16 35 20 0 4 16 13 35 20 19
7 35 17 35 22 0 6 4 8 9 4 5 -3 16 1 24 9 8 8 17 12 21 9 3 -4 6 -2 6 4 0 6
14 16 30 23 17 7 30 16 30 21 0 5 4 9 10 9 5 0 32 16 59 35 26 19 51 35 55 35
3 0 14 8 24 18 35 32 62 52 72 52 6 0 10 5 10 11 0 5 5 7 10 4 6 -3 10 1 10
11 0 14 2 15 17 3 12 -10 15 -10 9 -1 -6 11 14 42 28 42 2 0 17 12 33 28 144
135 161 150 173 139 8 -9 10 -8 5 6 -5 10 -2 17 6 17 7 0 10 3 6 6 -8 8 16 33
26 27 4 -2 7 1 7 7 0 18 72 90 83 83 6 -3 7 -1 3 6 -5 7 2 21 17 35 13 12 32
34 42 49 9 15 22 24 28 20 6 -3 7 -1 3 5 -3 6 2 15 11 21 10 6 14 11 10 11 -6
0 64 101 83 120 17 16 138 211 162 260 7 14 15 27 18 30 3 3 14 23 25 45 11
22 24 43 30 47 5 4 7 8 3 8 -4 0 16 47 43 105 27 58 49 113 49 121 0 11 5 14
18 9 13 -5 14 -3 5 6 -11 11 -11 14 18 84 13 32 25 75 28 96 0 5 6 7 13 3 7
-4 8 -3 4 5 -4 6 0 37 9 69 10 31 18 64 20 72 7 37 18 76 23 84 3 6 7 19 8 30
1 12 4 32 7 46 2 14 7 43 11 65 3 23 9 52 11 65 3 14 8 50 12 80 3 30 11 58
17 62 8 5 8 8 0 8 -6 0 -9 14 -8 33 2 17 5 57 8 87 11 114 4 465 -8 478 -3 3
0 12 7 20 9 13 9 14 0 8 -9 -5 -13 2 -14 26 0 18 -2 42 -4 53 -3 11 -7 38 -10
60 -13 91 -25 154 -36 190 -4 17 -11 46 -15 65 -7 44 -12 64 -14 68 -2 1 -4 7
-5 12 -1 6 -4 12 -5 15 -1 3 -3 8 -4 13 -1 4 -10 33 -19 65 -10 32 -15 63 -11
69 4 7 3 8 -4 4 -8 -5 -12 0 -12 13 0 11 -4 23 -10 26 -5 3 -10 13 -10 21 0
20 -71 188 -131 307 -27 53 -45 97 -41 97 4 0 2 4 -4 8 -21 14 -105 163 -98
174 4 6 3 8 -3 5 -6 -4 -30 23 -54 59 -24 37 -48 72 -54 78 -5 6 -30 38 -55
71 -25 33 -50 65 -56 71 -5 6 -26 31 -45 54 -48 61 -239 251 -309 309 -32 27
-56 52 -52 57 4 4 2 4 -4 1 -6 -3 -21 4 -35 16 -13 12 -48 40 -77 61 -29 21
-49 43 -45 48 3 7 1 8 -6 4 -16 -10 -64 22 -55 36 4 7 3 8 -4 4 -6 -3 -37 10
-69 31 -68 44 -72 46 -183 107 -47 25 -84 50 -82 57 1 6 -2 8 -8 4 -6 -4 -63
17 -128 46 -64 28 -130 56 -147 61 -16 5 -39 13 -50 18 -109 47 -462 130 -615
146 -25 3 -58 7 -75 10 -34 6 -500 15 -506 10z"/>
<path d="M496 3153 c-6 -14 -5 -15 5 -6 7 7 10 15 7 18 -3 3 -9 -2 -12 -12z"/>
<path d="M6155 2120 c3 -5 8 -10 11 -10 2 0 4 5 4 10 0 6 -5 10 -11 10 -5 0
-7 -4 -4 -10z"/>
<path d="M956 1738 c3 -5 10 -6 15 -3 13 9 11 12 -6 12 -8 0 -12 -4 -9 -9z"/>
<path d="M1236 1513 c-6 -14 -5 -15 5 -6 7 7 10 15 7 18 -3 3 -9 -2 -12 -12z"/>
<path d="M5596 1322 c-3 -5 1 -9 9 -9 8 0 12 4 9 9 -3 4 -7 8 -9 8 -2 0 -6 -4
-9 -8z"/>
<path d="M5450 1239 c0 -5 5 -7 10 -4 6 3 10 8 10 11 0 2 -4 4 -10 4 -5 0 -10
-5 -10 -11z"/>
<path d="M5436 1153 c-6 -14 -5 -15 5 -6 7 7 10 15 7 18 -3 3 -9 -2 -12 -12z"/>
<path d="M1750 1016 c0 -2 8 -10 18 -17 15 -13 16 -12 3 4 -13 16 -21 21 -21
13z"/>
<path d="M2116 815 c-9 -26 -7 -32 5 -12 6 10 9 21 6 23 -2 3 -7 -2 -11 -11z"/>
<path d="M4900 806 c0 -2 8 -10 18 -17 15 -13 16 -12 3 4 -13 16 -21 21 -21
13z"/>
<path d="M4753 765 c0 -8 4 -12 9 -9 5 3 6 10 3 15 -9 13 -12 11 -12 -6z"/>
<path d="M4830 776 c0 -2 8 -10 18 -17 15 -13 16 -12 3 4 -13 16 -21 21 -21
13z"/>
<path d="M2205 760 c-3 -6 1 -7 9 -4 18 7 21 14 7 14 -6 0 -13 -4 -16 -10z"/>
<path d="M4936 762 c-3 -5 1 -9 9 -9 8 0 12 4 9 9 -3 4 -7 8 -9 8 -2 0 -6 -4
-9 -8z"/>
<path d="M4470 660 c0 -5 5 -10 10 -10 6 0 10 5 10 10 0 6 -4 10 -10 10 -5 0
-10 -4 -10 -10z"/>
<path d="M4479 593 c-13 -16 -12 -17 4 -4 9 7 17 15 17 17 0 8 -8 3 -21 -13z"/>
<path d="M4213 569 c-2 -23 3 -25 10 -4 4 8 3 16 -1 19 -4 3 -9 -4 -9 -15z"/>
<path d="M3006 542 c-3 -5 1 -9 9 -9 8 0 12 4 9 9 -3 4 -7 8 -9 8 -2 0 -6 -4
-9 -8z"/>
<path d="M3930 441 c0 -6 4 -13 10 -16 6 -3 7 1 4 9 -7 18 -14 21 -14 7z"/>
</g>
</svg>
