<svg width="102" height="102" viewBox="0 0 102 102" fill="none" xmlns="http://www.w3.org/2000/svg"><g filter="url(#filter0_d)"><circle cx="51" cy="48" r="36" fill="url(#paint0_radial)"/></g><path fill-rule="evenodd" clip-rule="evenodd" d="M61.578 38.056a2.074 2.074 0 11-4.148 0 2.074 2.074 0 014.148 0zM50.28 53.04a5.76 5.76 0 110-11.52 5.76 5.76 0 010 11.52zm0-14.633a8.873 8.873 0 00-8.873 8.873 8.873 8.873 0 0017.747 0c0-4.9-3.973-8.873-8.874-8.873zm0-5.293c4.614 0 5.16.017 6.983.1 1.684.077 2.6.359 3.208.595a5.356 5.356 0 011.987 1.293 5.35 5.35 0 011.293 1.987c.236.609.518 1.524.595 3.209.083 1.822.1 2.368.1 6.983 0 4.614-.017 5.16-.1 6.982-.077 1.685-.358 2.6-.595 3.209a5.353 5.353 0 01-1.293 1.987 5.35 5.35 0 01-1.987 1.292c-.609.237-1.524.519-3.208.596-1.822.083-2.369.1-6.983.1-4.614 0-5.16-.017-6.983-.1-1.684-.078-2.6-.359-3.208-.596a5.355 5.355 0 01-1.987-1.292 5.353 5.353 0 01-1.293-1.987c-.237-.61-.518-1.524-.595-3.209-.083-1.822-.1-2.369-.1-6.982 0-4.614.017-5.161.1-6.983.077-1.685.358-2.6.595-3.209a5.355 5.355 0 011.293-1.987 5.35 5.35 0 011.987-1.293c.608-.236 1.523-.518 3.208-.595 1.823-.083 2.369-.1 6.983-.1zm0-3.114c-4.693 0-5.282.02-7.124.104-1.84.084-3.096.376-4.195.803a8.468 8.468 0 00-3.06 1.993 8.468 8.468 0 00-1.994 3.061c-.427 1.1-.72 2.355-.803 4.195C33.02 41.999 33 42.587 33 47.28s.02 5.282.104 7.124c.084 1.84.376 3.096.803 4.195a8.468 8.468 0 001.993 3.06 8.472 8.472 0 003.061 1.994c1.1.427 2.355.72 4.195.803 1.843.084 2.431.104 7.124.104s5.282-.02 7.124-.104c1.84-.084 3.096-.376 4.195-.803a8.472 8.472 0 003.06-1.993 8.472 8.472 0 001.994-3.061c.427-1.1.72-2.355.803-4.194.084-1.843.104-2.432.104-7.125s-.02-5.282-.104-7.124c-.084-1.84-.376-3.096-.803-4.195a8.472 8.472 0 00-1.993-3.06 8.472 8.472 0 00-3.061-1.994c-1.1-.427-2.355-.72-4.194-.803C55.561 30.02 54.972 30 50.28 30z" fill="#fff"/><defs><radialGradient id="paint0_radial" cx="0" cy="0" r="1" gradientUnits="userSpaceOnUse" gradientTransform="translate(55.75 108.25) scale(91.9979)"><stop stop-color="#FFB140"/><stop offset=".26" stop-color="#FF5445"/><stop offset=".6" stop-color="#FC2B82"/><stop offset="1" stop-color="#8E40B7"/></radialGradient><filter id="filter0_d" x="0" y="0" width="102" height="102" filterUnits="userSpaceOnUse" color-interpolation-filters="sRGB"><feFlood flood-opacity="0" result="BackgroundImageFix"/><feColorMatrix in="SourceAlpha" values="0 0 0 0 0 0 0 0 0 0 0 0 0 0 0 0 0 0 127 0" result="hardAlpha"/><feOffset dy="1"/><feGaussianBlur stdDeviation="2.5"/><feColorMatrix values="0 0 0 0 0 0 0 0 0 0 0 0 0 0 0 0 0 0 0.2 0"/><feBlend in2="BackgroundImageFix" result="effect1_dropShadow"/><feBlend in="SourceGraphic" in2="effect1_dropShadow" result="shape"/></filter></defs></svg>