<svg width="102" height="102" viewBox="0 0 102 102" fill="none" xmlns="http://www.w3.org/2000/svg"><g filter="url(#filter0_d)"><circle cx="51" cy="48" r="36" fill="#00AAEC"/></g><path fill-rule="evenodd" clip-rule="evenodd" d="M67.83 36.29c-1.27.578-2.637.969-4.071 1.143a7.256 7.256 0 003.118-4.02 13.961 13.961 0 01-4.506 1.762 6.993 6.993 0 00-5.175-2.295c-3.913 0-7.087 3.255-7.087 7.27 0 .57.06 1.124.182 1.656-5.892-.304-11.116-3.195-14.615-7.599a7.404 7.404 0 00-.96 3.66 7.319 7.319 0 003.155 6.05 6.963 6.963 0 01-3.214-.907v.09c0 3.524 2.445 6.463 5.69 7.129a6.76 6.76 0 01-1.868.256 6.89 6.89 0 01-1.335-.13c.903 2.888 3.52 4.991 6.623 5.047a14 14 0 01-8.806 3.114c-.572 0-1.138-.033-1.691-.1a19.742 19.742 0 0010.868 3.264c13.044 0 20.174-11.077 20.174-20.685 0-.316-.006-.633-.018-.943a14.545 14.545 0 003.536-3.763z" fill="#fff"/><defs><filter id="filter0_d" x="0" y="0" width="102" height="102" filterUnits="userSpaceOnUse" color-interpolation-filters="sRGB"><feFlood flood-opacity="0" result="BackgroundImageFix"/><feColorMatrix in="SourceAlpha" values="0 0 0 0 0 0 0 0 0 0 0 0 0 0 0 0 0 0 127 0" result="hardAlpha"/><feOffset dy="1"/><feGaussianBlur stdDeviation="2.5"/><feColorMatrix values="0 0 0 0 0 0 0 0 0 0 0 0 0 0 0 0 0 0 0.2 0"/><feBlend in2="BackgroundImageFix" result="effect1_dropShadow"/><feBlend in="SourceGraphic" in2="effect1_dropShadow" result="shape"/></filter></defs></svg>